<svg viewBox="0 0 600 1000" xmlns="http://www.w3.org/2000/svg">
<defs>
  <clipPath id="klipD"><path d="M 258,78 Q 229,438 258,798 L 276,798 Q 247,438 276,78 Z"/></clipPath>
  <clipPath id="klipB"><path d="M 343,78 Q 372,438 343,798 L 325,798 Q 354,438 325,78 Z"/></clipPath>
  <filter id="glowBesar" x="-120%" y="-30%" width="340%" height="160%"><feGaussianBlur stdDeviation="26"/></filter>
  <filter id="glowKecil" x="-80%" y="-20%" width="260%" height="140%"><feGaussianBlur stdDeviation="9"/></filter>
</defs>
<path d="M 258,78 Q 229,438 258,798 L 276,798 Q 247,438 276,78 Z" fill="#FFE9A8" opacity="0.9" filter="url(#glowBesar)"/>
<path d="M 258,78 Q 229,438 258,798 L 276,798 Q 247,438 276,78 Z" fill="#FFF6D8" opacity="0.9" filter="url(#glowKecil)"/>
<path d="M 343,78 Q 372,438 343,798 L 325,798 Q 354,438 325,78 Z" fill="#FFE9A8" opacity="0.9" filter="url(#glowBesar)"/>
<path d="M 343,78 Q 372,438 343,798 L 325,798 Q 354,438 325,78 Z" fill="#FFF6D8" opacity="0.9" filter="url(#glowKecil)"/>
<rect fill="#1E2A3A" x="272" y="810" width="56" height="100"/>
<rect fill="#1E2A3A" x="212" y="906" width="176" height="38" rx="6"/>
<path d="M 276,56 L 326,56 Q 346,56 347,78 Q 379,438 347,798 Q 346,820 326,820 L 276,820 Q 256,820 254,798 Q 222,438 254,78 Q 256,56 276,56 Z" fill="#1E2A3A"/>
<path d="M 258,78 Q 229,438 258,798 L 276,798 Q 247,438 276,78 Z" fill="#FFFDF2"/>
<path d="M 343,78 Q 372,438 343,798 L 325,798 Q 354,438 325,78 Z" fill="#FFFDF2"/>
<g clip-path="url(#klipD)">
  <rect x="243.5" y="282" width="24" height="44" fill="#27408B" opacity="0.95"/>
  <rect x="242.3" y="332" width="24" height="44" fill="#27408B" opacity="0.95"/>
  <rect x="241.6" y="382" width="24" height="44" fill="#1E8E3E" opacity="0.95"/>
  <rect x="241.5" y="432" width="24" height="44" fill="#E5C11A" opacity="0.95"/>
  <rect x="242.0" y="482" width="24" height="44" fill="#FFFFFF" opacity="0.95"/>
  <rect x="243.0" y="532" width="24" height="44" fill="#B3261E" opacity="0.95"/>
  <rect x="244.6" y="582" width="24" height="44" fill="#27408B" opacity="0.95"/>
  <rect x="246.7" y="632" width="24" height="44" fill="#27408B" opacity="0.95"/>
</g>
<g clip-path="url(#klipB)">
  <rect x="335.5" y="282" width="24" height="44" fill="#27408B" opacity="0.95"/>
  <rect x="336.7" y="332" width="24" height="44" fill="#27408B" opacity="0.95"/>
  <rect x="337.4" y="382" width="24" height="44" fill="#1E8E3E" opacity="0.95"/>
  <rect x="337.5" y="432" width="24" height="44" fill="#E5C11A" opacity="0.95"/>
  <rect x="337.0" y="482" width="24" height="44" fill="#FFFFFF" opacity="0.95"/>
  <rect x="336.0" y="532" width="24" height="44" fill="#B3261E" opacity="0.95"/>
  <rect x="334.4" y="582" width="24" height="44" fill="#27408B" opacity="0.95"/>
  <rect x="332.3" y="632" width="24" height="44" fill="#27408B" opacity="0.95"/>
</g>
<rect fill="#1E2A3A" x="239.5" y="240" width="52" height="16" rx="6"/>
<rect fill="#1E2A3A" x="314.5" y="240" width="52" height="16" rx="6"/>
<rect fill="#1E2A3A" x="235.7" y="470" width="52" height="16" rx="6"/>
<rect fill="#1E2A3A" x="318.8" y="470" width="52" height="16" rx="6"/>
<rect fill="#1E2A3A" x="242.3" y="676" width="52" height="16" rx="6"/>
<rect fill="#1E2A3A" x="311.5" y="676" width="52" height="16" rx="6"/>
</svg>
